<?xml version="1.0" standalone="no"?>
<!DOCTYPE svg PUBLIC "-//W3C//DTD SVG 20010904//EN"
 "http://www.w3.org/TR/2001/REC-SVG-20010904/DTD/svg10.dtd">
<svg version="1.0" xmlns="http://www.w3.org/2000/svg"
 width="700.000000pt" height="700.000000pt" viewBox="0 0 700.000000 700.000000"
 preserveAspectRatio="xMidYMid meet">
<metadata>
Created by potrace 1.11, written by Peter Selinger 2001-2013
</metadata>
<g transform="translate(0.000000,700.000000) scale(0.100000,-0.100000)"
fill="#000000" stroke="none">
<path d="M0 3500 l0 -3500 3500 0 3500 0 0 3500 0 3500 -3500 0 -3500 0 0
-3500z m4770 1725 l0 -375 -765 0 c-722 0 -765 -1 -765 -17 0 -10 -16 -198
-35 -418 -18 -220 -33 -401 -31 -402 2 -2 32 8 68 21 325 123 722 102 1054
-53 247 -116 459 -330 556 -563 129 -307 142 -738 33 -1065 -136 -408 -463
-730 -880 -866 -420 -138 -929 -110 -1370 77 -176 74 -395 217 -548 357 l-59
54 201 283 201 282 88 -74 c289 -245 574 -357 877 -343 338 16 572 186 651
473 25 92 30 283 10 385 -38 196 -159 357 -328 437 -126 61 -211 76 -387 69
-206 -8 -278 -30 -469 -145 -56 -34 -106 -62 -111 -62 -5 0 -98 57 -206 127
l-197 127 6 70 c3 39 28 485 56 991 28 506 53 939 56 963 l5 42 1145 0 1144 0
0 -375z"/>
</g>
</svg>
