<?xml version="1.0" standalone="no"?>
<!DOCTYPE svg PUBLIC "-//W3C//DTD SVG 20010904//EN"
 "http://www.w3.org/TR/2001/REC-SVG-20010904/DTD/svg10.dtd">
<svg version="1.0" xmlns="http://www.w3.org/2000/svg"
 width="700.000000pt" height="700.000000pt" viewBox="0 0 700.000000 700.000000"
 preserveAspectRatio="xMidYMid meet">
<metadata>
Created by potrace 1.11, written by Peter Selinger 2001-2013
</metadata>
<g transform="translate(0.000000,700.000000) scale(0.100000,-0.100000)"
fill="#000000" stroke="none">
<path d="M0 3500 l0 -3500 3500 0 3500 0 0 3500 0 3500 -3500 0 -3500 0 0
-3500z m4350 1150 l0 -250 -510 0 -509 0 -5 -32 c-7 -45 -46 -522 -42 -525 1
-1 25 6 53 17 214 81 501 59 725 -56 74 -39 111 -66 184 -139 79 -78 98 -103
137 -185 70 -147 82 -212 81 -430 0 -172 -2 -191 -28 -275 -100 -327 -336
-549 -684 -642 -88 -24 -114 -27 -282 -26 -152 0 -203 3 -287 21 -234 50 -446
157 -611 308 l-53 49 134 187 133 186 80 -64 c162 -130 324 -201 484 -211 273
-18 476 118 520 347 29 152 -6 317 -88 415 -83 100 -199 147 -362 146 -150 0
-225 -23 -358 -108 l-54 -34 -135 87 -135 87 6 76 c3 42 20 328 36 636 17 308
33 584 36 613 l5 52 765 0 764 0 0 -250z"/>
</g>
</svg>
